<svg id="Layer_1" data-name="Layer 1" xmlns="http://www.w3.org/2000/svg" viewBox="0 0 162.66 70.95"><defs><style>.cls-1{font-size:61.91px;fill:#263a7f;font-family:SourceSansPro-Bold, Source Sans Pro;font-weight:700;letter-spacing:-0.01em;}.cls-2{letter-spacing:-0.01em;}.cls-3{letter-spacing:-0.01em;}.cls-4{letter-spacing:0em;}.cls-5{font-size:40.09px;fill:#eec41a;font-family:SourceSansPro-Black, Source Sans Pro;}.cls-6{fill:#efc419;}</style></defs><title>levelup-logo</title><text class="cls-1" transform="translate(0 51.39) scale(0.74 1)">L<tspan class="cls-2" x="31.21" y="0">e</tspan><tspan class="cls-3" x="62.9" y="0">v</tspan><tspan class="cls-4" x="94.79" y="0">el</tspan></text><text class="cls-5" transform="translate(111.35 33.94)">UP</text><path class="cls-6" d="M304.4,285.24v0l16.41,8c4.94,1.59,7-.16,7-1.51a2.43,2.43,0,0,0-1.43-2l-19.45-9.58a5.23,5.23,0,0,0-2.53-.64h0a5.23,5.23,0,0,0-2.53.64l-19.45,9.58a2.43,2.43,0,0,0-1.43,2c0,1.35,2.07,3.11,7,1.51" transform="translate(-168.56 -241.69)"/></svg>