<svg id="Layer_1" data-name="Layer 1" xmlns="http://www.w3.org/2000/svg" viewBox="0 0 157.75 44.26"><defs><style>.cls-1{fill:#263a7f;}.cls-2{fill:#eec41a;}.cls-3{fill:#efc419;}</style></defs><title>levelup-logo</title><path class="cls-1" d="M172.1,252.71h6.77V285.4h11.89v7.68H172.1Z" transform="translate(-172.1 -249.58)"/><path class="cls-1" d="M193.44,277.73c0-10,5.3-16.1,10.78-16.1,6.5,0,9.72,6.38,9.72,14.74a26.84,26.84,0,0,1-.28,4H200c.6,4.46,2.9,6.5,5.94,6.5a7.65,7.65,0,0,0,4.93-2l2.26,5.51a12.51,12.51,0,0,1-8.11,3.47C198.46,293.83,193.44,287.88,193.44,277.73Zm14.75-3.34c0-3.41-1.11-5.82-3.83-5.82-2.12,0-4,1.92-4.42,5.82Z" transform="translate(-172.1 -249.58)"/><path class="cls-1" d="M215.93,262.37h6.82l2.95,14.49c.6,3,1.2,6.25,1.8,9.47h.18c.55-3.22,1.15-6.44,1.75-9.47l3-14.49h6.5l-7.47,30.71h-7.83Z" transform="translate(-172.1 -249.58)"/><path class="cls-1" d="M240.77,277.73c0-10,5.3-16.1,10.78-16.1,6.5,0,9.72,6.38,9.72,14.74a26.84,26.84,0,0,1-.28,4H247.32c.6,4.46,2.9,6.5,5.94,6.5a7.65,7.65,0,0,0,4.93-2l2.26,5.51a12.51,12.51,0,0,1-8.11,3.47C245.8,293.83,240.77,287.88,240.77,277.73Zm14.75-3.34c0-3.41-1.11-5.82-3.82-5.82-2.12,0-4,1.92-4.42,5.82Z" transform="translate(-172.1 -249.58)"/><path class="cls-1" d="M266,283.55V249.68h6.77v34.24c0,1.92.65,2.54,1.2,2.54a2.15,2.15,0,0,0,.83-.12l.83,6.75a6.85,6.85,0,0,1-3.41.74C267.55,293.83,266,289.74,266,283.55Z" transform="translate(-172.1 -249.58)"/><path class="cls-2" d="M282.63,263V249.58h6.89v14.27c0,4.65,1.2,6.33,3.93,6.33s4-1.68,4-6.33V249.58h6.65V263c0,8.9-3.37,13.07-10.66,13.07S282.63,271.95,282.63,263Z" transform="translate(-172.1 -249.58)"/><path class="cls-2" d="M309.73,249.58h9.54c5.69,0,10.58,2.08,10.58,8.66,0,6.37-5,9.14-10.42,9.14h-2.81v8.26h-6.89Zm9.38,12.35c2.73,0,4-1.36,4-3.69S321.6,255,319,255h-2.33v6.89Z" transform="translate(-172.1 -249.58)"/><path class="cls-3" d="M304.4,285.24v0l16.41,8c4.94,1.59,7-.16,7-1.51a2.43,2.43,0,0,0-1.43-2l-19.45-9.58a5.23,5.23,0,0,0-2.53-.64h0a5.23,5.23,0,0,0-2.53.64l-19.45,9.58a2.43,2.43,0,0,0-1.43,2c0,1.35,2.07,3.11,7,1.51" transform="translate(-172.1 -249.58)"/></svg>